<svg width="10" height="10" viewBox="0 0 10 10" fill="none" xmlns="http://www.w3.org/2000/svg">
<g clip-path="url(#clip0_1109_573)">
<path d="M7.45946 9.84016L7.7893 9.5126C7.89231 9.40951 7.94906 9.27235 7.94906 9.12577C7.94906 8.97926 7.89231 8.84194 7.7893 8.73885L4.05252 5.00224L7.79345 1.26131C7.89646 1.15838 7.95312 1.02107 7.95312 0.87456C7.95312 0.728055 7.89646 0.590655 7.79345 0.487646L7.46564 0.160001C7.25247 -0.0533338 6.90523 -0.0533338 6.69206 0.160001L2.22202 4.61402C2.11909 4.71695 2.04657 4.8541 2.04657 5.00191L2.04657 5.00362C2.04657 5.1502 2.11918 5.28736 2.22202 5.39029L6.67994 9.84016C6.78287 9.94325 6.92417 9.99984 7.07068 10C7.21726 10 7.35662 9.94325 7.45946 9.84016Z" fill="#5A6885"/>
</g>
<defs>
<clipPath id="clip0_1109_573">
<rect width="10" height="10" fill="white" transform="translate(10) rotate(90)"/>
</clipPath>
</defs>
</svg>
