<svg width="1223" height="236" viewBox="0 0 1223 236" fill="none" xmlns="http://www.w3.org/2000/svg">
<path d="M125.08 235.12C107.16 235.12 90.52 232.347 75.16 226.8C60.0133 221.04 46.7867 212.933 35.48 202.48C24.3867 192.027 15.7467 179.653 9.56 165.36C3.37333 151.067 0.28 135.28 0.28 118C0.28 100.72 3.37333 84.9333 9.56 70.64C15.7467 56.3467 24.3867 43.9733 35.48 33.52C46.7867 23.0667 60.0133 15.0667 75.16 9.52C90.52 3.75999 107.16 0.879993 125.08 0.879993C147.053 0.879993 166.467 4.71999 183.32 12.4C200.387 20.08 214.467 31.1733 225.56 45.68L177.88 88.24C171.267 79.92 163.907 73.52 155.8 69.04C147.907 64.3467 138.947 62 128.92 62C121.027 62 113.88 63.28 107.48 65.84C101.08 68.4 95.5333 72.1333 90.84 77.04C86.36 81.9467 82.84 87.92 80.28 94.96C77.72 101.787 76.44 109.467 76.44 118C76.44 126.533 77.72 134.32 80.28 141.36C82.84 148.187 86.36 154.053 90.84 158.96C95.5333 163.867 101.08 167.6 107.48 170.16C113.88 172.72 121.027 174 128.92 174C138.947 174 147.907 171.76 155.8 167.28C163.907 162.587 171.267 156.08 177.88 147.76L225.56 190.32C214.467 204.613 200.387 215.707 183.32 223.6C166.467 231.28 147.053 235.12 125.08 235.12ZM367.045 230V198.96L361.925 190.64V131.76C361.925 123.227 359.258 116.72 353.925 112.24C348.805 107.76 340.378 105.52 328.645 105.52C320.752 105.52 312.752 106.8 304.645 109.36C296.538 111.707 289.605 115.013 283.845 119.28L260.805 71.6C271.045 65.2 283.312 60.2933 297.605 56.88C311.898 53.4667 325.872 51.76 339.525 51.76C369.605 51.76 392.858 58.48 409.285 71.92C425.925 85.36 434.245 106.693 434.245 135.92V230H367.045ZM317.445 233.2C303.152 233.2 291.205 230.747 281.605 225.84C272.005 220.933 264.752 214.427 259.845 206.32C254.938 198 252.485 188.827 252.485 178.8C252.485 167.493 255.365 157.893 261.125 150C266.885 142.107 275.632 136.133 287.365 132.08C299.312 128.027 314.352 126 332.485 126H368.965V160.88H344.005C336.325 160.88 330.672 162.16 327.045 164.72C323.632 167.067 321.925 170.693 321.925 175.6C321.925 179.653 323.418 183.067 326.405 185.84C329.605 188.4 333.872 189.68 339.205 189.68C344.112 189.68 348.592 188.4 352.645 185.84C356.912 183.067 360.005 178.8 361.925 173.04L371.205 194.48C368.432 207.493 362.565 217.2 353.605 223.6C344.645 230 332.592 233.2 317.445 233.2ZM481.5 230V54.96H550.3V107.76L539.1 92.72C544.433 79.0667 552.967 68.8267 564.7 62C576.433 55.1733 590.513 51.76 606.94 51.76V115.76C603.74 115.333 600.86 115.013 598.3 114.8C595.953 114.587 593.5 114.48 590.94 114.48C580.06 114.48 571.1 117.36 564.06 123.12C557.233 128.667 553.82 138.373 553.82 152.24V230H481.5ZM738.515 233.2C717.182 233.2 698.515 229.253 682.515 221.36C666.728 213.467 654.462 202.693 645.715 189.04C636.968 175.173 632.595 159.6 632.595 142.32C632.595 124.613 636.862 108.933 645.395 95.28C654.142 81.6267 665.982 70.96 680.915 63.28C696.062 55.6 713.022 51.76 731.795 51.76C749.075 51.76 764.968 55.1733 779.475 62C794.195 68.8267 805.928 78.96 814.675 92.4C823.635 105.84 828.115 122.48 828.115 142.32C828.115 144.88 828.008 147.76 827.795 150.96C827.582 153.947 827.368 156.72 827.155 159.28H692.435V124.4H788.755L761.555 133.68C761.555 126.853 760.275 121.093 757.715 116.4C755.368 111.493 752.062 107.76 747.795 105.2C743.528 102.427 738.408 101.04 732.435 101.04C726.462 101.04 721.235 102.427 716.755 105.2C712.488 107.76 709.182 111.493 706.835 116.4C704.488 121.093 703.315 126.853 703.315 133.68V144.56C703.315 152.027 704.808 158.427 707.795 163.76C710.782 169.093 715.048 173.147 720.595 175.92C726.142 178.48 732.862 179.76 740.755 179.76C748.862 179.76 755.475 178.693 760.595 176.56C765.928 174.427 771.475 171.227 777.235 166.96L814.995 205.04C806.462 214.213 795.902 221.253 783.315 226.16C770.942 230.853 756.008 233.2 738.515 233.2ZM935.417 233.2C920.484 233.2 905.764 231.6 891.258 228.4C876.751 225.2 865.018 221.04 856.058 215.92L875.898 168.24C884.218 173.147 893.818 176.987 904.698 179.76C915.791 182.533 926.564 183.92 937.018 183.92C945.764 183.92 951.631 183.173 954.618 181.68C957.818 180.187 959.418 178.16 959.418 175.6C959.418 173.04 957.604 171.227 953.978 170.16C950.351 168.88 945.551 167.92 939.578 167.28C933.604 166.64 926.991 165.893 919.738 165.04C912.698 163.973 905.551 162.48 898.298 160.56C891.044 158.64 884.431 155.76 878.458 151.92C872.484 148.08 867.684 142.96 864.058 136.56C860.431 129.947 858.618 121.627 858.618 111.6C858.618 100.507 861.924 90.48 868.538 81.52C875.364 72.56 885.391 65.4133 898.618 60.08C912.058 54.5333 928.591 51.76 948.218 51.76C961.018 51.76 973.818 52.9333 986.618 55.28C999.418 57.6267 1010.4 61.2533 1019.58 66.16L999.738 113.84C990.778 108.933 981.924 105.627 973.178 103.92C964.644 102 956.644 101.04 949.178 101.04C940.004 101.04 933.711 101.893 930.298 103.6C927.098 105.307 925.498 107.227 925.498 109.36C925.498 111.92 927.311 113.84 930.938 115.12C934.564 116.4 939.364 117.36 945.338 118C951.311 118.64 957.818 119.493 964.858 120.56C972.111 121.413 979.258 122.907 986.298 125.04C993.551 126.96 1000.16 129.84 1006.14 133.68C1012.11 137.52 1016.91 142.747 1020.54 149.36C1024.16 155.76 1025.98 163.973 1025.98 174C1025.98 184.453 1022.67 194.267 1016.06 203.44C1009.44 212.4 999.418 219.653 985.978 225.2C972.538 230.533 955.684 233.2 935.417 233.2ZM1132.35 233.2C1117.42 233.2 1102.7 231.6 1088.2 228.4C1073.69 225.2 1061.96 221.04 1053 215.92L1072.84 168.24C1081.16 173.147 1090.76 176.987 1101.64 179.76C1112.73 182.533 1123.5 183.92 1133.96 183.92C1142.7 183.92 1148.57 183.173 1151.56 181.68C1154.76 180.187 1156.36 178.16 1156.36 175.6C1156.36 173.04 1154.54 171.227 1150.92 170.16C1147.29 168.88 1142.49 167.92 1136.52 167.28C1130.54 166.64 1123.93 165.893 1116.68 165.04C1109.64 163.973 1102.49 162.48 1095.24 160.56C1087.98 158.64 1081.37 155.76 1075.4 151.92C1069.42 148.08 1064.62 142.96 1061 136.56C1057.37 129.947 1055.56 121.627 1055.56 111.6C1055.56 100.507 1058.86 90.48 1065.48 81.52C1072.3 72.56 1082.33 65.4133 1095.56 60.08C1109 54.5333 1125.53 51.76 1145.16 51.76C1157.96 51.76 1170.76 52.9333 1183.56 55.28C1196.36 57.6267 1207.34 61.2533 1216.52 66.16L1196.68 113.84C1187.72 108.933 1178.86 105.627 1170.12 103.92C1161.58 102 1153.58 101.04 1146.12 101.04C1136.94 101.04 1130.65 101.893 1127.24 103.6C1124.04 105.307 1122.44 107.227 1122.44 109.36C1122.44 111.92 1124.25 113.84 1127.88 115.12C1131.5 116.4 1136.3 117.36 1142.28 118C1148.25 118.64 1154.76 119.493 1161.8 120.56C1169.05 121.413 1176.2 122.907 1183.24 125.04C1190.49 126.96 1197.1 129.84 1203.08 133.68C1209.05 137.52 1213.85 142.747 1217.48 149.36C1221.1 155.76 1222.92 163.973 1222.92 174C1222.92 184.453 1219.61 194.267 1213 203.44C1206.38 212.4 1196.36 219.653 1182.92 225.2C1169.48 230.533 1152.62 233.2 1132.35 233.2Z" fill="#D3D9E5" fill-opacity="0.1"/>
</svg>
