<svg width="17" height="17" viewBox="0 0 17 17" fill="none" xmlns="http://www.w3.org/2000/svg">
<path d="M15.3003 14.6951L14.3268 3.73374C14.306 3.49039 14.1009 3.30613 13.861 3.30613H11.8585C11.8307 1.47751 10.3358 0 8.50025 0C6.66467 0 5.16978 1.47751 5.14197 3.30613H3.13952C2.89616 3.30613 2.69453 3.49039 2.67367 3.73374L1.70025 14.6951C1.70025 14.709 1.69678 14.7229 1.69678 14.7368C1.69678 15.9849 2.84054 17 4.24851 17H12.752C14.16 17 15.3037 15.9849 15.3037 14.7368C15.3037 14.7229 15.3037 14.709 15.3003 14.6951ZM8.50025 0.93865C9.81784 0.93865 10.8921 1.9955 10.9199 3.30613H6.08062C6.10843 1.9955 7.18267 0.93865 8.50025 0.93865ZM12.752 16.0613H4.24851C3.36549 16.0613 2.64933 15.4773 2.63543 14.7577L3.56712 4.24826H5.13849V5.67362C5.13849 5.93436 5.34708 6.14294 5.60782 6.14294C5.86856 6.14294 6.07714 5.93436 6.07714 5.67362V4.24826H10.9199V5.67362C10.9199 5.93436 11.1285 6.14294 11.3892 6.14294C11.6499 6.14294 11.8585 5.93436 11.8585 5.67362V4.24826H13.4299L14.3651 14.7577C14.3512 15.4773 13.6315 16.0613 12.752 16.0613Z" fill="#5A6885"/>
</svg>
