<svg width="559" height="214" viewBox="0 0 559 214" fill="none" xmlns="http://www.w3.org/2000/svg">
<line x1="103" y1="192.5" x2="183" y2="192.5" stroke="#C7CDD7" stroke-width="3"/>
<path d="M60.336 142.304C52.272 142.304 44.784 141.056 37.872 138.56C31.056 135.968 25.104 132.32 20.016 127.616C15.024 122.912 11.136 117.344 8.352 110.912C5.568 104.48 4.176 97.376 4.176 89.6C4.176 81.824 5.568 74.72 8.352 68.288C11.136 61.856 15.024 56.288 20.016 51.584C25.104 46.88 31.056 43.28 37.872 40.784C44.784 38.192 52.272 36.896 60.336 36.896C70.224 36.896 78.96 38.624 86.544 42.08C94.224 45.536 100.56 50.528 105.552 57.056L84.096 76.208C81.12 72.464 77.808 69.584 74.16 67.568C70.608 65.456 66.576 64.4 62.064 64.4C58.512 64.4 55.296 64.976 52.416 66.128C49.536 67.28 47.04 68.96 44.928 71.168C42.912 73.376 41.328 76.064 40.176 79.232C39.024 82.304 38.448 85.76 38.448 89.6C38.448 93.44 39.024 96.944 40.176 100.112C41.328 103.184 42.912 105.824 44.928 108.032C47.04 110.24 49.536 111.92 52.416 113.072C55.296 114.224 58.512 114.8 62.064 114.8C66.576 114.8 70.608 113.792 74.16 111.776C77.808 109.664 81.12 106.736 84.096 102.992L105.552 122.144C100.56 128.576 94.224 133.568 86.544 137.12C78.96 140.576 70.224 142.304 60.336 142.304ZM169.22 140V126.032L166.916 122.288V95.792C166.916 91.952 165.716 89.024 163.316 87.008C161.012 84.992 157.22 83.984 151.94 83.984C148.388 83.984 144.788 84.56 141.14 85.712C137.492 86.768 134.372 88.256 131.78 90.176L121.412 68.72C126.02 65.84 131.54 63.632 137.972 62.096C144.404 60.56 150.692 59.792 156.836 59.792C170.372 59.792 180.836 62.816 188.228 68.864C195.716 74.912 199.46 84.512 199.46 97.664V140H169.22ZM146.9 141.44C140.468 141.44 135.092 140.336 130.772 138.128C126.452 135.92 123.188 132.992 120.98 129.344C118.772 125.6 117.668 121.472 117.668 116.96C117.668 111.872 118.964 107.552 121.556 104C124.148 100.448 128.084 97.76 133.364 95.936C138.74 94.112 145.508 93.2 153.668 93.2H170.084V108.896H158.852C155.396 108.896 152.852 109.472 151.22 110.624C149.684 111.68 148.916 113.312 148.916 115.52C148.916 117.344 149.588 118.88 150.932 120.128C152.372 121.28 154.292 121.856 156.692 121.856C158.9 121.856 160.916 121.28 162.74 120.128C164.66 118.88 166.052 116.96 166.916 114.368L171.092 124.016C169.844 129.872 167.204 134.24 163.172 137.12C159.14 140 153.716 141.44 146.9 141.44ZM220.725 140V61.232H251.685V84.992L246.645 78.224C249.045 72.08 252.885 67.472 258.165 64.4C263.445 61.328 269.781 59.792 277.173 59.792V88.592C275.733 88.4 274.437 88.256 273.285 88.16C272.229 88.064 271.125 88.016 269.973 88.016C265.077 88.016 261.045 89.312 257.877 91.904C254.805 94.4 253.269 98.768 253.269 105.008V140H220.725ZM336.382 141.44C326.782 141.44 318.382 139.664 311.182 136.112C304.078 132.56 298.558 127.712 294.622 121.568C290.686 115.328 288.718 108.32 288.718 100.544C288.718 92.576 290.638 85.52 294.478 79.376C298.414 73.232 303.742 68.432 310.462 64.976C317.278 61.52 324.91 59.792 333.358 59.792C341.134 59.792 348.286 61.328 354.814 64.4C361.438 67.472 366.718 72.032 370.654 78.08C374.686 84.128 376.702 91.616 376.702 100.544C376.702 101.696 376.654 102.992 376.558 104.432C376.462 105.776 376.366 107.024 376.27 108.176H315.646V92.48H358.99L346.75 96.656C346.75 93.584 346.174 90.992 345.022 88.88C343.966 86.672 342.478 84.992 340.558 83.84C338.638 82.592 336.334 81.968 333.646 81.968C330.958 81.968 328.606 82.592 326.59 83.84C324.67 84.992 323.182 86.672 322.126 88.88C321.07 90.992 320.542 93.584 320.542 96.656V101.552C320.542 104.912 321.214 107.792 322.558 110.192C323.902 112.592 325.822 114.416 328.318 115.664C330.814 116.816 333.838 117.392 337.39 117.392C341.038 117.392 344.014 116.912 346.318 115.952C348.718 114.992 351.214 113.552 353.806 111.632L370.798 128.768C366.958 132.896 362.206 136.064 356.542 138.272C350.974 140.384 344.254 141.44 336.382 141.44ZM424.988 141.44C418.268 141.44 411.644 140.72 405.116 139.28C398.588 137.84 393.308 135.968 389.276 133.664L398.204 112.208C401.948 114.416 406.268 116.144 411.164 117.392C416.156 118.64 421.004 119.264 425.708 119.264C429.644 119.264 432.284 118.928 433.628 118.256C435.068 117.584 435.788 116.672 435.788 115.52C435.788 114.368 434.972 113.552 433.34 113.072C431.708 112.496 429.548 112.064 426.86 111.776C424.172 111.488 421.196 111.152 417.932 110.768C414.764 110.288 411.548 109.616 408.284 108.752C405.02 107.888 402.044 106.592 399.356 104.864C396.668 103.136 394.508 100.832 392.876 97.952C391.244 94.976 390.428 91.232 390.428 86.72C390.428 81.728 391.916 77.216 394.892 73.184C397.964 69.152 402.476 65.936 408.428 63.536C414.476 61.04 421.916 59.792 430.748 59.792C436.508 59.792 442.268 60.32 448.028 61.376C453.788 62.432 458.732 64.064 462.86 66.272L453.932 87.728C449.9 85.52 445.916 84.032 441.98 83.264C438.14 82.4 434.54 81.968 431.18 81.968C427.052 81.968 424.22 82.352 422.684 83.12C421.244 83.888 420.524 84.752 420.524 85.712C420.524 86.864 421.34 87.728 422.972 88.304C424.604 88.88 426.764 89.312 429.452 89.6C432.14 89.888 435.068 90.272 438.236 90.752C441.5 91.136 444.716 91.808 447.884 92.768C451.148 93.632 454.124 94.928 456.812 96.656C459.5 98.384 461.66 100.736 463.292 103.712C464.924 106.592 465.74 110.288 465.74 114.8C465.74 119.504 464.252 123.92 461.276 128.048C458.3 132.08 453.788 135.344 447.74 137.84C441.692 140.24 434.108 141.44 424.988 141.44ZM513.61 141.44C506.89 141.44 500.266 140.72 493.738 139.28C487.21 137.84 481.93 135.968 477.898 133.664L486.826 112.208C490.57 114.416 494.89 116.144 499.786 117.392C504.778 118.64 509.626 119.264 514.33 119.264C518.266 119.264 520.906 118.928 522.25 118.256C523.69 117.584 524.41 116.672 524.41 115.52C524.41 114.368 523.594 113.552 521.962 113.072C520.33 112.496 518.17 112.064 515.482 111.776C512.794 111.488 509.818 111.152 506.554 110.768C503.386 110.288 500.17 109.616 496.906 108.752C493.642 107.888 490.666 106.592 487.978 104.864C485.29 103.136 483.13 100.832 481.498 97.952C479.866 94.976 479.05 91.232 479.05 86.72C479.05 81.728 480.538 77.216 483.514 73.184C486.586 69.152 491.098 65.936 497.05 63.536C503.098 61.04 510.538 59.792 519.37 59.792C525.13 59.792 530.89 60.32 536.65 61.376C542.41 62.432 547.354 64.064 551.482 66.272L542.554 87.728C538.522 85.52 534.538 84.032 530.602 83.264C526.762 82.4 523.162 81.968 519.802 81.968C515.674 81.968 512.842 82.352 511.306 83.12C509.866 83.888 509.146 84.752 509.146 85.712C509.146 86.864 509.962 87.728 511.594 88.304C513.226 88.88 515.386 89.312 518.074 89.6C520.762 89.888 523.69 90.272 526.858 90.752C530.122 91.136 533.338 91.808 536.506 92.768C539.77 93.632 542.746 94.928 545.434 96.656C548.122 98.384 550.282 100.736 551.914 103.712C553.546 106.592 554.362 110.288 554.362 114.8C554.362 119.504 552.874 123.92 549.898 128.048C546.922 132.08 542.41 135.344 536.362 137.84C530.314 140.24 522.73 141.44 513.61 141.44Z" fill="white" fill-opacity="0.3"/>
<path d="M220.412 179.8H226.244V205H220.412V179.8ZM208.964 205H203.132V179.8H208.964V205ZM220.844 194.668H208.532V189.736H220.844V194.668ZM242.278 205.288C240.214 205.288 238.378 204.856 236.77 203.992C235.186 203.128 233.926 201.952 232.99 200.464C232.078 198.952 231.622 197.236 231.622 195.316C231.622 193.372 232.078 191.656 232.99 190.168C233.926 188.656 235.186 187.48 236.77 186.64C238.378 185.776 240.214 185.344 242.278 185.344C244.318 185.344 246.142 185.776 247.75 186.64C249.358 187.48 250.618 188.644 251.53 190.132C252.442 191.62 252.898 193.348 252.898 195.316C252.898 197.236 252.442 198.952 251.53 200.464C250.618 201.952 249.358 203.128 247.75 203.992C246.142 204.856 244.318 205.288 242.278 205.288ZM242.278 200.68C243.214 200.68 244.054 200.464 244.798 200.032C245.542 199.6 246.13 198.988 246.562 198.196C246.994 197.38 247.21 196.42 247.21 195.316C247.21 194.188 246.994 193.228 246.562 192.436C246.13 191.644 245.542 191.032 244.798 190.6C244.054 190.168 243.214 189.952 242.278 189.952C241.342 189.952 240.502 190.168 239.758 190.6C239.014 191.032 238.414 191.644 237.958 192.436C237.526 193.228 237.31 194.188 237.31 195.316C237.31 196.42 237.526 197.38 237.958 198.196C238.414 198.988 239.014 199.6 239.758 200.032C240.502 200.464 241.342 200.68 242.278 200.68ZM257.84 205V185.632H267.74C270.164 185.632 272.06 186.076 273.428 186.964C274.796 187.828 275.48 189.052 275.48 190.636C275.48 192.22 274.832 193.468 273.536 194.38C272.264 195.268 270.572 195.712 268.46 195.712L269.036 194.416C271.388 194.416 273.14 194.848 274.292 195.712C275.468 196.576 276.056 197.836 276.056 199.492C276.056 201.196 275.408 202.54 274.112 203.524C272.816 204.508 270.836 205 268.172 205H257.84ZM262.988 201.184H267.704C268.736 201.184 269.504 201.016 270.008 200.68C270.536 200.32 270.8 199.78 270.8 199.06C270.8 198.316 270.56 197.776 270.08 197.44C269.6 197.08 268.844 196.9 267.812 196.9H262.988V201.184ZM262.988 193.588H267.236C268.22 193.588 268.952 193.408 269.432 193.048C269.936 192.688 270.188 192.172 270.188 191.5C270.188 190.804 269.936 190.288 269.432 189.952C268.952 189.616 268.22 189.448 267.236 189.448H262.988V193.588ZM292.907 205V201.22L292.547 200.392V193.624C292.547 192.424 292.175 191.488 291.431 190.816C290.711 190.144 289.595 189.808 288.083 189.808C287.051 189.808 286.031 189.976 285.023 190.312C284.039 190.624 283.199 191.056 282.503 191.608L280.487 187.684C281.543 186.94 282.815 186.364 284.303 185.956C285.791 185.548 287.303 185.344 288.839 185.344C291.791 185.344 294.083 186.04 295.715 187.432C297.347 188.824 298.163 190.996 298.163 193.948V205H292.907ZM287.003 205.288C285.491 205.288 284.195 205.036 283.115 204.532C282.035 204.004 281.207 203.296 280.631 202.408C280.055 201.52 279.767 200.524 279.767 199.42C279.767 198.268 280.043 197.26 280.595 196.396C281.171 195.532 282.071 194.86 283.295 194.38C284.519 193.876 286.115 193.624 288.083 193.624H293.231V196.9H288.695C287.375 196.9 286.463 197.116 285.959 197.548C285.479 197.98 285.239 198.52 285.239 199.168C285.239 199.888 285.515 200.464 286.067 200.896C286.643 201.304 287.423 201.508 288.407 201.508C289.343 201.508 290.183 201.292 290.927 200.86C291.671 200.404 292.211 199.744 292.547 198.88L293.411 201.472C293.003 202.72 292.259 203.668 291.179 204.316C290.099 204.964 288.707 205.288 287.003 205.288ZM316.326 205V198.556L317.118 199.456H311.754C308.97 199.456 306.786 198.88 305.202 197.728C303.618 196.576 302.826 194.92 302.826 192.76C302.826 190.456 303.654 188.692 305.31 187.468C306.99 186.244 309.246 185.632 312.078 185.632H321.33V205H316.326ZM302.538 205L307.686 197.62H313.41L308.514 205H302.538ZM316.326 196.828V188.764L317.118 190.204H312.186C311.034 190.204 310.134 190.42 309.486 190.852C308.862 191.284 308.55 191.98 308.55 192.94C308.55 194.788 309.738 195.712 312.114 195.712H317.118L316.326 196.828ZM352.798 205L346.318 195.82L350.89 193.12L359.422 205H352.798ZM339.082 205V185.632H344.698V205H339.082ZM343.042 197.656V193.156H349.81V197.656H343.042ZM351.43 195.964L346.174 195.388L352.978 185.632H358.954L351.43 195.964ZM371.734 205.288C369.67 205.288 367.834 204.856 366.226 203.992C364.642 203.128 363.382 201.952 362.446 200.464C361.534 198.952 361.078 197.236 361.078 195.316C361.078 193.372 361.534 191.656 362.446 190.168C363.382 188.656 364.642 187.48 366.226 186.64C367.834 185.776 369.67 185.344 371.734 185.344C373.774 185.344 375.598 185.776 377.206 186.64C378.814 187.48 380.074 188.644 380.986 190.132C381.898 191.62 382.354 193.348 382.354 195.316C382.354 197.236 381.898 198.952 380.986 200.464C380.074 201.952 378.814 203.128 377.206 203.992C375.598 204.856 373.774 205.288 371.734 205.288ZM371.734 200.68C372.67 200.68 373.51 200.464 374.254 200.032C374.998 199.6 375.586 198.988 376.018 198.196C376.45 197.38 376.666 196.42 376.666 195.316C376.666 194.188 376.45 193.228 376.018 192.436C375.586 191.644 374.998 191.032 374.254 190.6C373.51 190.168 372.67 189.952 371.734 189.952C370.798 189.952 369.958 190.168 369.214 190.6C368.47 191.032 367.87 191.644 367.414 192.436C366.982 193.228 366.766 194.188 366.766 195.316C366.766 196.42 366.982 197.38 367.414 198.196C367.87 198.988 368.47 199.6 369.214 200.032C369.958 200.464 370.798 200.68 371.734 200.68ZM384.568 204.964L384.856 200.356C385 200.38 385.144 200.404 385.288 200.428C385.432 200.428 385.564 200.428 385.684 200.428C386.356 200.428 386.884 200.236 387.268 199.852C387.652 199.468 387.94 198.952 388.132 198.304C388.324 197.632 388.456 196.876 388.528 196.036C388.624 195.196 388.696 194.32 388.744 193.408L389.032 185.632H405.592V205H399.976V188.872L401.236 190.24H392.74L393.928 188.8L393.676 193.66C393.604 195.388 393.46 196.972 393.244 198.412C393.052 199.852 392.728 201.1 392.272 202.156C391.816 203.188 391.204 203.992 390.436 204.568C389.668 205.12 388.684 205.396 387.484 205.396C387.052 205.396 386.596 205.36 386.116 205.288C385.636 205.216 385.12 205.108 384.568 204.964ZM409.624 204.964L409.912 200.356C410.056 200.38 410.2 200.404 410.344 200.428C410.488 200.428 410.62 200.428 410.74 200.428C411.412 200.428 411.94 200.236 412.324 199.852C412.708 199.468 412.996 198.952 413.188 198.304C413.38 197.632 413.512 196.876 413.584 196.036C413.68 195.196 413.752 194.32 413.8 193.408L414.088 185.632H430.648V205H425.032V188.872L426.292 190.24H417.796L418.984 188.8L418.732 193.66C418.66 195.388 418.516 196.972 418.3 198.412C418.108 199.852 417.784 201.1 417.328 202.156C416.872 203.188 416.26 203.992 415.492 204.568C414.724 205.12 413.74 205.396 412.54 205.396C412.108 205.396 411.652 205.36 411.172 205.288C410.692 205.216 410.176 205.108 409.624 204.964ZM446.597 205.288C444.389 205.288 442.445 204.856 440.765 203.992C439.109 203.128 437.825 201.952 436.913 200.464C436.001 198.952 435.545 197.236 435.545 195.316C435.545 193.372 435.989 191.656 436.877 190.168C437.789 188.656 439.025 187.48 440.585 186.64C442.145 185.776 443.909 185.344 445.877 185.344C447.773 185.344 449.477 185.752 450.989 186.568C452.525 187.36 453.737 188.512 454.625 190.024C455.513 191.512 455.957 193.3 455.957 195.388C455.957 195.604 455.945 195.856 455.921 196.144C455.897 196.408 455.873 196.66 455.849 196.9H440.117V193.624H452.897L450.737 194.596C450.737 193.588 450.533 192.712 450.125 191.968C449.717 191.224 449.153 190.648 448.433 190.24C447.713 189.808 446.873 189.592 445.913 189.592C444.953 189.592 444.101 189.808 443.357 190.24C442.637 190.648 442.073 191.236 441.665 192.004C441.257 192.748 441.053 193.636 441.053 194.668V195.532C441.053 196.588 441.281 197.524 441.737 198.34C442.217 199.132 442.877 199.744 443.717 200.176C444.581 200.584 445.589 200.788 446.741 200.788C447.773 200.788 448.673 200.632 449.441 200.32C450.233 200.008 450.953 199.54 451.601 198.916L454.589 202.156C453.701 203.164 452.585 203.944 451.241 204.496C449.897 205.024 448.349 205.288 446.597 205.288ZM475.058 205L468.578 195.82L473.15 193.12L481.682 205H475.058ZM461.342 205V185.632H466.958V205H461.342ZM465.302 197.656V193.156H472.07V197.656H465.302ZM473.69 195.964L468.434 195.388L475.238 185.632H481.214L473.69 195.964ZM485.519 205V185.632H491.099V200.392H498.911V185.632H504.527V205H485.519ZM502.115 209.176V204.928L503.411 205H498.911V200.392H507.335V209.176H502.115ZM511.947 205V185.632H517.527V197.152L526.959 185.632H532.107V205H526.527V193.48L517.131 205H511.947ZM550.79 205V198.556L551.582 199.456H546.218C543.434 199.456 541.25 198.88 539.666 197.728C538.082 196.576 537.29 194.92 537.29 192.76C537.29 190.456 538.118 188.692 539.774 187.468C541.454 186.244 543.71 185.632 546.542 185.632H555.794V205H550.79ZM537.002 205L542.15 197.62H547.874L542.978 205H537.002ZM550.79 196.828V188.764L551.582 190.204H546.65C545.498 190.204 544.598 190.42 543.95 190.852C543.326 191.284 543.014 191.98 543.014 192.94C543.014 194.788 544.202 195.712 546.578 195.712H551.582L550.79 196.828Z" fill="#C7CDD7"/>
</svg>
