<svg width="30" height="30" viewBox="0 0 30 30" fill="none" xmlns="http://www.w3.org/2000/svg">
<path d="M15.0007 0C7.57743 0 1.54199 6.03543 1.54199 13.4587C1.54199 20.7165 7.32349 26.6516 14.5223 26.9055V30L18.0833 26.439L14.5223 22.878V25.9488C7.84908 25.689 2.50459 20.1909 2.50459 13.4587C2.50459 6.56693 8.10892 0.962598 15.0007 0.962598C21.8924 0.962598 27.4967 6.56693 27.4967 13.4587H28.4593C28.4593 6.03543 22.4239 0 15.0007 0ZM15.479 25.1929L16.7192 26.4331L15.479 27.6732V25.1929Z" fill="#5A6885"/>
<path d="M7.78906 6.24805V20.6693H22.2103V6.24805H7.78906ZM13.5587 7.21065H16.4406V9.13584H13.5587V7.21065ZM21.2477 19.7067H8.75166V7.21065H12.5961V10.0925H17.4032V7.21065H21.2477V19.7067Z" fill="#5A6885"/>
<path d="M18.8439 14.6575L17.1963 16.5059L17.9168 17.1437L18.3656 16.6417V18.7441H19.3282V16.6417L19.7711 17.1437L20.4916 16.5059L18.8439 14.6575Z" fill="#5A6885"/>
<path d="M14.8469 14.6575L13.1992 16.5059L13.9197 17.1437L14.3626 16.6417V18.7441H15.3252V16.6417L15.774 17.1437L16.4886 16.5059L14.8469 14.6575Z" fill="#5A6885"/>
</svg>
