<svg width="67" height="13" viewBox="0 0 67 13" fill="none" xmlns="http://www.w3.org/2000/svg">
<path d="M6.82598 13C5.53622 13 4.36814 12.7231 3.32173 12.1694C2.28749 11.6037 1.47227 10.8273 0.876061 9.84028C0.29202 8.85324 0 7.73982 0 6.5C0 5.26019 0.298104 4.14676 0.894312 3.15972C1.49052 2.17269 2.30574 1.40231 3.33998 0.848611C4.38639 0.28287 5.55447 0 6.84423 0C7.89063 0 8.84578 0.180556 9.70968 0.541667C10.5736 0.902778 11.3036 1.42639 11.8998 2.1125L10.3667 3.53889C9.44199 2.55185 8.30433 2.05833 6.95374 2.05833C6.07767 2.05833 5.29287 2.25093 4.59932 2.63611C3.90577 3.00926 3.36432 3.53287 2.97496 4.20694C2.5856 4.88102 2.39092 5.64537 2.39092 6.5C2.39092 7.35463 2.5856 8.11898 2.97496 8.79306C3.36432 9.46713 3.90577 9.99676 4.59932 10.3819C5.29287 10.7551 6.07767 10.9417 6.95374 10.9417C8.30433 10.9417 9.44199 10.4421 10.3667 9.44306L11.8998 10.8875C11.3036 11.5736 10.5675 12.0972 9.69143 12.4583C8.82753 12.8194 7.87238 13 6.82598 13Z" fill="#5A6885"/>
<path d="M18.866 3.06944C20.3017 3.06944 21.3968 3.4125 22.1512 4.09861C22.9178 4.77269 23.301 5.79583 23.301 7.16806V12.8194H21.1474V11.6458C20.8675 12.0671 20.466 12.3921 19.9428 12.6208C19.4318 12.8375 18.8112 12.9458 18.0812 12.9458C17.3511 12.9458 16.7123 12.8255 16.1648 12.5847C15.6172 12.3319 15.1914 11.9889 14.8872 11.5556C14.5952 11.1102 14.4492 10.6106 14.4492 10.0569C14.4492 9.19028 14.7716 8.49815 15.4165 7.98056C16.0735 7.45093 17.1017 7.18611 18.5009 7.18611H21.0196V7.04167C21.0196 6.36759 20.8128 5.85 20.3991 5.48889C19.9975 5.12778 19.3953 4.94722 18.5922 4.94722C18.0447 4.94722 17.5032 5.03148 16.9678 5.2C16.4446 5.36852 16.0005 5.60324 15.6355 5.90417L14.7412 4.26111C15.2522 3.87593 15.8667 3.58102 16.5846 3.37639C17.3024 3.17176 18.0629 3.06944 18.866 3.06944ZM18.5557 11.3028C19.1276 11.3028 19.6325 11.1764 20.0706 10.9236C20.5208 10.6588 20.8371 10.2856 21.0196 9.80417V8.68472H18.6652C17.3511 8.68472 16.6941 9.11204 16.6941 9.96667C16.6941 10.3759 16.8583 10.7009 17.1869 10.9417C17.5154 11.1824 17.9717 11.3028 18.5557 11.3028Z" fill="#5A6885"/>
<path d="M29.6784 4.58611C30.3355 3.575 31.4914 3.06944 33.1462 3.06944V5.21806C32.9515 5.18194 32.7751 5.16389 32.6169 5.16389C31.7287 5.16389 31.0351 5.42269 30.5362 5.94028C30.0374 6.44583 29.7879 7.18009 29.7879 8.14306V12.8194H27.5065V3.17778H29.6784V4.58611Z" fill="#5A6885"/>
<path d="M45.4321 8.05278C45.4321 8.20926 45.42 8.43194 45.3956 8.72083H37.7483C37.8822 9.43102 38.229 9.99676 38.7887 10.4181C39.3605 10.8273 40.0662 11.0319 40.9058 11.0319C41.9766 11.0319 42.8587 10.6829 43.5522 9.98472L44.7751 11.375C44.3371 11.8926 43.7834 12.2838 43.1142 12.5486C42.445 12.8134 41.6906 12.9458 40.8511 12.9458C39.7803 12.9458 38.8373 12.7352 38.0221 12.3139C37.2069 11.8926 36.5742 11.3088 36.124 10.5625C35.6859 9.80417 35.4669 8.94954 35.4669 7.99861C35.4669 7.05972 35.6799 6.21713 36.1057 5.47083C36.5438 4.7125 37.146 4.12269 37.9126 3.70139C38.6792 3.28009 39.543 3.06944 40.5043 3.06944C41.4534 3.06944 42.299 3.28009 43.0412 3.70139C43.7956 4.11065 44.3796 4.69444 44.7933 5.45278C45.2192 6.19907 45.4321 7.06574 45.4321 8.05278ZM40.5043 4.875C39.7742 4.875 39.1537 5.09167 38.6427 5.525C38.1438 5.9463 37.8396 6.51204 37.7301 7.22222H43.2602C43.1629 6.52407 42.8648 5.95833 42.3659 5.525C41.867 5.09167 41.2465 4.875 40.5043 4.875Z" fill="#5A6885"/>
<path d="M51.9126 12.9458C51.1217 12.9458 50.3491 12.8435 49.5947 12.6389C48.8403 12.4343 48.238 12.1755 47.7878 11.8625L48.6639 10.1472C49.1019 10.4361 49.6251 10.6708 50.2335 10.8514C50.854 11.0199 51.4624 11.1042 52.0586 11.1042C53.4214 11.1042 54.1028 10.7491 54.1028 10.0389C54.1028 9.70185 53.9263 9.46713 53.5735 9.33472C53.2328 9.20232 52.6792 9.07593 51.9126 8.95556C51.1096 8.83519 50.4525 8.69676 49.9415 8.54028C49.4426 8.3838 49.0046 8.11296 48.6274 7.72778C48.2624 7.33056 48.0798 6.78287 48.0798 6.08472C48.0798 5.16991 48.4631 4.44167 49.2297 3.9C50.0084 3.3463 51.0548 3.06944 52.3689 3.06944C53.0381 3.06944 53.7073 3.14769 54.3765 3.30417C55.0457 3.44861 55.5933 3.64722 56.0191 3.9L55.1431 5.61528C54.3157 5.1338 53.3849 4.89306 52.3506 4.89306C51.6814 4.89306 51.1704 4.99537 50.8175 5.2C50.4768 5.39259 50.3065 5.65139 50.3065 5.97639C50.3065 6.3375 50.489 6.5963 50.854 6.75278C51.2312 6.89722 51.8092 7.03565 52.5879 7.16806C53.3666 7.28843 54.0054 7.42685 54.5043 7.58333C55.0032 7.73981 55.429 8.00463 55.7819 8.37778C56.1469 8.75093 56.3294 9.28056 56.3294 9.96667C56.3294 10.8694 55.934 11.5917 55.1431 12.1333C54.3522 12.675 53.2754 12.9458 51.9126 12.9458Z" fill="#5A6885"/>
<path d="M62.5832 12.9458C61.7923 12.9458 61.0197 12.8435 60.2653 12.6389C59.5109 12.4343 58.9086 12.1755 58.4584 11.8625L59.3345 10.1472C59.7725 10.4361 60.2957 10.6708 60.9041 10.8514C61.5246 11.0199 62.133 11.1042 62.7292 11.1042C64.092 11.1042 64.7733 10.7491 64.7733 10.0389C64.7733 9.70185 64.5969 9.46713 64.2441 9.33472C63.9034 9.20232 63.3497 9.07593 62.5832 8.95556C61.7801 8.83519 61.1231 8.69676 60.6121 8.54028C60.1132 8.3838 59.6752 8.11296 59.298 7.72778C58.9329 7.33056 58.7504 6.78287 58.7504 6.08472C58.7504 5.16991 59.1337 4.44167 59.9003 3.9C60.679 3.3463 61.7254 3.06944 63.0395 3.06944C63.7087 3.06944 64.3779 3.14769 65.0471 3.30417C65.7163 3.44861 66.2639 3.64722 66.6897 3.9L65.8137 5.61528C64.9863 5.1338 64.0555 4.89306 63.0212 4.89306C62.352 4.89306 61.841 4.99537 61.4881 5.2C61.1474 5.39259 60.9771 5.65139 60.9771 5.97639C60.9771 6.3375 61.1596 6.5963 61.5246 6.75278C61.9018 6.89722 62.4798 7.03565 63.2585 7.16806C64.0372 7.28843 64.676 7.42685 65.1749 7.58333C65.6737 7.73981 66.0996 8.00463 66.4525 8.37778C66.8175 8.75093 67 9.28056 67 9.96667C67 10.8694 66.6046 11.5917 65.8137 12.1333C65.0228 12.675 63.946 12.9458 62.5832 12.9458Z" fill="#5A6885"/>
</svg>
