<svg width="36" height="36" viewBox="0 0 36 36" fill="none" xmlns="http://www.w3.org/2000/svg">
<path d="M13.4632 17.8064L14.9847 23.4847L14.1898 23.6978L10.0125 20.6003L11.0667 24.5346L10.1338 24.7846L8.6123 19.1062L9.40727 18.8932L13.5889 22.0069L12.5304 18.0564L13.4632 17.8064Z" fill="#5A6885"/>
<path d="M19.9248 22.1611L16.5584 23.0631L15.0369 17.3847L18.3222 16.5044L18.5722 17.4373L16.2846 18.0503L16.6628 19.4617L18.707 18.914L18.957 19.8469L16.9128 20.3946L17.3062 21.8629L19.6749 21.2282L19.9248 22.1611Z" fill="#5A6885"/>
<path d="M25.9085 14.4717L26.8657 14.2152L26.7648 20.3283L25.8319 20.5783L23.3612 16.841L23.1144 21.3064L22.1734 21.5585L18.9565 16.3345L20.076 16.0345L22.3044 19.7759L22.4852 15.389L23.4749 15.1238L25.8596 18.832L25.9085 14.4717Z" fill="#5A6885"/>
<path d="M13.4632 17.8064L14.9847 23.4847L14.1898 23.6978L10.0125 20.6003L11.0667 24.5346L10.1338 24.7846L8.6123 19.1062L9.40727 18.8932L13.5889 22.0069L12.5304 18.0564L13.4632 17.8064Z" stroke="#5A6885" stroke-width="0.3"/>
<path d="M19.9248 22.1611L16.5584 23.0631L15.0369 17.3847L18.3222 16.5044L18.5722 17.4373L16.2846 18.0503L16.6628 19.4617L18.707 18.914L18.957 19.8469L16.9128 20.3946L17.3062 21.8629L19.6749 21.2282L19.9248 22.1611Z" stroke="#5A6885" stroke-width="0.3"/>
<path d="M25.9085 14.4717L26.8657 14.2152L26.7648 20.3283L25.8319 20.5783L23.3612 16.841L23.1144 21.3064L22.1734 21.5585L18.9565 16.3345L20.076 16.0345L22.3044 19.7759L22.4852 15.389L23.4749 15.1238L25.8596 18.832L25.9085 14.4717Z" stroke="#5A6885" stroke-width="0.3"/>
<path d="M17.3947 6.46021C17.7524 6.18825 18.2476 6.18825 18.6053 6.46021L20.8168 8.14172C21.0124 8.29045 21.2559 8.36195 21.5008 8.34259L24.2703 8.12363C24.7183 8.08822 25.1348 8.35592 25.2887 8.77809L26.24 11.3883C26.3242 11.6192 26.4904 11.811 26.7069 11.9271L29.1552 13.2402C29.5511 13.4526 29.7568 13.903 29.658 14.3413L29.0472 17.0515C28.9931 17.2912 29.0292 17.5424 29.1486 17.7572L30.4983 20.1855C30.7166 20.5782 30.6461 21.0684 30.326 21.3837L28.3469 23.3334C28.1718 23.5058 28.0664 23.7367 28.0507 23.9819L27.8733 26.7544C27.8446 27.2028 27.5203 27.577 27.0806 27.6692L24.3616 28.2394C24.1211 28.2898 23.9076 28.4271 23.7618 28.6249L22.1136 30.8613C21.847 31.223 21.3719 31.3625 20.9521 31.2024L18.3565 30.212C18.1269 30.1244 17.8731 30.1244 17.6435 30.212L15.0479 31.2024C14.6281 31.3625 14.153 31.223 13.8864 30.8613L12.2382 28.6249C12.0924 28.4271 11.8789 28.2898 11.6384 28.2394L8.91942 27.6692C8.47965 27.577 8.15539 27.2028 8.1267 26.7544L7.94928 23.9819C7.93359 23.7367 7.82816 23.5058 7.65311 23.3334L5.67399 21.3837C5.35389 21.0684 5.28342 20.5782 5.50171 20.1855L6.85138 17.7572C6.97075 17.5424 7.00687 17.2912 6.95284 17.0515L6.34197 14.3413C6.24317 13.903 6.44887 13.4526 6.84484 13.2402L9.29308 11.9271C9.50963 11.811 9.67583 11.6192 9.75997 11.3883L10.7113 8.77809C10.8652 8.35592 11.2817 8.08822 11.7297 8.12363L14.4992 8.34259C14.7441 8.36195 14.9876 8.29045 15.1832 8.14172L17.3947 6.46021Z" stroke="#5A6885" stroke-width="1.4"/>
</svg>
