<svg width="36" height="36" viewBox="0 0 36 36" fill="none" xmlns="http://www.w3.org/2000/svg">
<path d="M16.1357 20.5436C16.1749 22.3766 16.5191 24.1394 14.528 24.7182C12.1666 25.4067 9.56124 25.7312 8.65066 26.503C7.6878 27.323 7.71394 28.8929 7.71394 28.8929" stroke="#5A6885" stroke-width="1.4" stroke-miterlimit="10" stroke-linecap="round" stroke-linejoin="round"/>
<path d="M19.8651 20.5436C19.8259 22.3766 19.4817 24.1394 21.4728 24.7182C23.8342 25.4067 26.3611 25.8408 27.3501 26.503C28.2912 27.1344 28.2869 28.8929 28.2869 28.8929" stroke="#5A6885" stroke-width="1.4" stroke-miterlimit="10" stroke-linecap="round" stroke-linejoin="round"/>
<path d="M8.65527 26.5073L18.0312 28.1474L27.3461 26.5073" stroke="#5A6885" stroke-width="1.4" stroke-miterlimit="10" stroke-linecap="round" stroke-linejoin="round"/>
<path d="M13.6304 16.6583C14.3318 19.2324 16.5495 21.1662 17.9829 21.1662C19.4773 21.1662 21.8953 19.4122 22.4181 16.3338" stroke="#5A6885" stroke-width="1.4" stroke-miterlimit="10" stroke-linecap="round" stroke-linejoin="round"/>
<path d="M14.9374 10.5761C14.3361 12.5801 13.3907 16.5443 13.5519 18.75C13.7131 20.9557 15.4166 22.9334 15.4166 22.9334C15.4166 22.9334 10.1536 22.4949 9.90088 17.1407C9.68303 12.567 12.5542 8.71242 14.2403 7.2741C16.1834 5.61652 19.8388 5.77 21.6731 7.2741C23.5857 8.84398 25.9079 13.0142 26.1345 17.0705C26.4351 22.4774 20.6666 22.9378 20.6666 22.9378C20.6666 22.9378 23.2067 21.1706 22.4181 16.3338C22.4181 16.3338 19.987 16.575 18.0177 14.571C16.0484 12.567 14.9374 10.5761 14.9374 10.5761Z" stroke="#5A6885" stroke-width="1.4" stroke-miterlimit="10" stroke-linecap="round" stroke-linejoin="round"/>
</svg>
