<svg width="36" height="36" viewBox="0 0 36 36" fill="none" xmlns="http://www.w3.org/2000/svg">
<path d="M14.9619 20.843C14.7881 22.1706 14.6839 23.6729 12.4947 24.197C10.3055 24.7211 8.15104 24.6162 7.51253 26.6645C6.9522 28.4638 6.95654 29.6691 6.95654 29.6691" stroke="#5A6885" stroke-width="1.4" stroke-miterlimit="10" stroke-linecap="round" stroke-linejoin="round"/>
<path d="M20.9692 20.843C21.143 22.1706 21.2472 23.6729 23.4364 24.197C25.6256 24.7211 27.78 24.6162 28.4186 26.6645C28.9789 28.4638 29.044 29.6691 29.044 29.6691" stroke="#5A6885" stroke-width="1.4" stroke-miterlimit="10" stroke-linecap="round" stroke-linejoin="round"/>
<path d="M13.3984 13.6676C13.3984 14.9778 13.3984 16.6723 13.3984 17.7379C13.3984 18.8035 14.745 21.878 17.9245 21.878C21.104 21.878 22.4506 19.083 22.4506 17.7379C22.4506 16.3928 22.4506 14.2965 22.4506 14.2965" stroke="#5A6885" stroke-width="1.4" stroke-miterlimit="10" stroke-linecap="round" stroke-linejoin="round"/>
<path d="M14.0542 23.4022C14.0542 23.4022 15.5397 25.8915 17.9244 25.8915C20.3655 25.8915 21.825 23.4022 21.825 23.4022" stroke="#5A6885" stroke-width="1.4" stroke-miterlimit="10" stroke-linecap="round" stroke-linejoin="round"/>
<path d="M19.3057 11.9033C19.3057 11.9033 17.1165 13.6677 14.2324 13.6677C11.3482 13.6677 11.2266 11.3443 11.2266 10.8028C11.2266 9.49262 11.7652 7.5885 11.7652 7.5885C11.7652 7.5885 12.7381 8.40081 13.798 8.42701C15.2401 8.46195 16.0741 7.78066 17.9244 7.78066C19.7748 7.78066 22.0379 8.45758 22.8501 10.5582C23.4973 12.2309 22.4462 14.2922 22.4462 14.2922C22.4462 14.2922 20.1397 13.6677 19.3057 11.9033Z" stroke="#5A6885" stroke-width="1.4" stroke-miterlimit="10" stroke-linecap="round" stroke-linejoin="round"/>
<path d="M13.3983 14.2966C12.3211 14.2966 11.9736 15.3971 11.9736 16.0609C11.9736 16.9693 12.2169 18 13.3983 18" stroke="#5A6885" stroke-width="1.4" stroke-miterlimit="10" stroke-linecap="round" stroke-linejoin="round"/>
<path d="M22.5674 14.2966C23.6446 14.2966 23.9921 15.3971 23.9921 16.0609C23.9921 16.9693 23.7488 18 22.5674 18" stroke="#5A6885" stroke-width="1.4" stroke-miterlimit="10" stroke-linecap="round" stroke-linejoin="round"/>
</svg>
