<svg width="10" height="10" viewBox="0 0 10 10" fill="none" xmlns="http://www.w3.org/2000/svg">
<g clip-path="url(#clip0_30_77)">
<path d="M7.30678 7.29156C7.15387 7.13938 6.90655 7.13996 6.75436 7.29287L5.39061 8.66322V0.390625C5.39061 0.174883 5.21573 0 4.99999 0C4.78425 0 4.60937 0.174883 4.60937 0.390625V8.66324L3.24562 7.29285C3.09343 7.13994 2.84611 7.13936 2.6932 7.29154C2.54027 7.44375 2.53971 7.69107 2.69187 7.84398L4.72312 9.88508C4.72323 9.88521 4.72337 9.88531 4.72349 9.88543C4.87568 10.0379 5.1238 10.0384 5.27649 9.88545C5.27661 9.88531 5.27675 9.88521 5.27687 9.8851L7.30811 7.844C7.46026 7.69111 7.45973 7.44377 7.30678 7.29156Z" fill="#5A6885"/>
</g>
<defs>
<clipPath id="clip0_30_77">
<rect width="10" height="10" fill="white"/>
</clipPath>
</defs>
</svg>
