<svg width="25" height="25" viewBox="0 0 25 25" fill="none" xmlns="http://www.w3.org/2000/svg">
<path d="M18.125 1.04163C15.8854 1.04508 13.7874 2.13741 12.5 3.96989C11.2126 2.13741 9.11458 1.04508 6.875 1.04163C3.21248 1.04163 0 4.44922 0 8.33329C0 12.1187 2.13745 16.0174 6.18164 19.6083C8.05542 21.2689 10.1109 22.7124 12.3088 23.9117C12.4288 23.9736 12.5712 23.9736 12.6912 23.9117C14.8883 22.7124 16.9432 21.2687 18.8163 19.6083C22.8625 16.0174 25 12.1187 25 8.33329C25 4.44922 21.7875 1.04163 18.125 1.04163V1.04163ZM12.5 23.0678C10.9696 22.2233 0.833333 16.3232 0.833333 8.33329C0.833333 4.89294 3.65621 1.87496 6.875 1.87496C9.05558 1.87882 11.0657 3.05518 12.137 4.95459C12.2172 5.07707 12.3537 5.15072 12.5 5.15072C12.6463 5.15072 12.7828 5.07707 12.863 4.95459C13.9343 3.05518 15.9444 1.87882 18.125 1.87496C21.3438 1.87496 24.1667 4.89294 24.1667 8.33329C24.1667 16.3232 14.0304 22.2233 12.5 23.0678Z" fill="#5A6885"/>
</svg>
