<svg width="10" height="10" viewBox="0 0 10 10" fill="none" xmlns="http://www.w3.org/2000/svg">
<g clip-path="url(#clip0_1109_1163)">
<path d="M6.10138 5.00001L9.84024 1.26099C9.94309 1.15806 9.99984 1.02074 10 0.874319C10 0.727815 9.94325 0.590336 9.84024 0.487571L9.5126 0.16001C9.40959 0.0568398 9.27228 0.000335693 9.12569 0.000335693C8.97935 0.000335693 8.84203 0.0568398 8.73902 0.16001L5.00016 3.89879L1.26114 0.16001C1.15829 0.0568398 1.02089 0.000335693 0.87439 0.000335693C0.728049 0.000335693 0.59065 0.0568398 0.487805 0.16001L0.16 0.487571C-0.0533333 0.700905 -0.0533333 1.0479 0.16 1.26099L3.89894 5.00001L0.16 8.73887C0.0570732 8.84196 0.000406504 8.97928 0.000406504 9.1257C0.000406504 9.27212 0.0570732 9.40944 0.16 9.51245L0.487724 9.84001C0.590569 9.9431 0.728049 9.99968 0.874309 9.99968C1.02081 9.99968 1.15821 9.9431 1.26106 9.84001L5.00008 6.10115L8.73894 9.84001C8.84195 9.9431 8.97927 9.99968 9.12561 9.99968H9.12577C9.27219 9.99968 9.40951 9.9431 9.51252 9.84001L9.84016 9.51245C9.94301 9.40952 9.99976 9.27212 9.99976 9.1257C9.99976 8.97928 9.94301 8.84196 9.84016 8.73895L6.10138 5.00001Z" fill="#5A6885"/>
</g>
<defs>
<clipPath id="clip0_1109_1163">
<rect width="10" height="10" fill="white"/>
</clipPath>
</defs>
</svg>
