<svg width="20" height="20" viewBox="0 0 20 20" fill="none" xmlns="http://www.w3.org/2000/svg">
<g clip-path="url(#clip0_103_284)">
<path d="M19.5465 3.68736H11.599C11.4081 2.80431 10.5967 2.11218 9.66587 2.11218C8.71122 2.11218 7.92363 2.78044 7.7327 3.68736H0.429594C0.190931 3.68736 0 3.87829 0 4.11696C0 4.35562 0.190931 4.54655 0.429594 4.54655H7.70883C7.89976 5.4296 8.71122 6.12173 9.642 6.12173C10.5967 6.12173 11.3842 5.45347 11.5752 4.54655H19.5465C19.7852 4.54655 19.9761 4.35562 19.9761 4.11696C19.9761 3.87829 19.7852 3.68736 19.5465 3.68736ZM9.66587 5.28641C9.04535 5.28641 8.52029 4.78521 8.52029 4.14082C8.52029 3.49643 9.02148 2.99524 9.66587 2.99524C10.2864 2.99524 10.8115 3.49643 10.8115 4.14082C10.8115 4.76135 10.3103 5.28641 9.66587 5.28641Z" fill="#5A6885"/>
<path d="M19.5704 9.58232H7.5179C7.32697 8.69927 6.51551 8.00714 5.58473 8.00714C4.63007 8.00714 3.84248 8.6754 3.65155 9.58232H0.429594C0.190931 9.58232 0 9.77325 0 10.0119C0 10.2506 0.190931 10.4415 0.429594 10.4415H3.65155C3.84248 11.3246 4.65394 12.0167 5.58473 12.0167C6.53938 12.0167 7.32697 11.3484 7.5179 10.4415H19.5704C19.8091 10.4415 20 10.2506 20 10.0119C20 9.77325 19.8091 9.58232 19.5704 9.58232ZM5.58473 11.1575C4.9642 11.1575 4.43914 10.6563 4.43914 10.0119C4.43914 9.39139 4.9642 8.86633 5.58473 8.86633C6.20525 8.86633 6.73031 9.36752 6.73031 10.0119C6.73031 10.6324 6.22912 11.1575 5.58473 11.1575Z" fill="#5A6885"/>
<path d="M19.5465 15.4535H15.7995C15.6086 14.5704 14.7971 13.8783 13.8663 13.8783C12.9117 13.8783 12.1241 14.5466 11.9332 15.4535H0.429594C0.190931 15.4535 0 15.6444 0 15.8831C0 16.1217 0.190931 16.3127 0.429594 16.3127H11.9093C12.1002 17.1957 12.9117 17.8878 13.8425 17.8878C14.7971 17.8878 15.5847 17.2196 15.7757 16.3127H19.5465C19.7852 16.3127 19.9761 16.1217 19.9761 15.8831C19.9761 15.6444 19.7852 15.4535 19.5465 15.4535ZM13.8425 17.0525C13.222 17.0525 12.6969 16.5513 12.6969 15.9069C12.6969 15.2625 13.222 14.7614 13.8425 14.7614C14.463 14.7614 14.9881 15.2625 14.9881 15.9069C14.9881 16.5513 14.4869 17.0525 13.8425 17.0525Z" fill="#5A6885"/>
</g>
<defs>
<clipPath id="clip0_103_284">
<rect width="20" height="20" fill="white"/>
</clipPath>
</defs>
</svg>
