<svg width="30" height="30" viewBox="0 0 30 30" fill="none" xmlns="http://www.w3.org/2000/svg">
<g clip-path="url(#clip0_63_120)">
<path d="M7 19.75C5.34549 19.75 4 21.0955 4 22.75C4 24.4045 5.34549 25.75 7 25.75C8.65451 25.75 10 24.4045 10 22.75C10 21.0955 8.65445 19.75 7 19.75ZM7 24.75C5.89697 24.75 5.00002 23.853 5.00002 22.75C5.00002 21.647 5.89703 20.7501 7 20.7501C8.10297 20.7501 8.99998 21.6471 8.99998 22.75C8.99998 23.853 8.10297 24.75 7 24.75Z" fill="#5A6885"/>
<path d="M24 19.75C22.3455 19.75 21 21.0955 21 22.75C21 24.4045 22.3455 25.75 24 25.75C25.6545 25.75 27 24.4045 27 22.75C27 21.0955 25.6545 19.75 24 19.75ZM24 24.75C22.897 24.75 22 23.853 22 22.75C22 21.647 22.897 20.7501 24 20.7501C25.103 20.7501 26 21.6471 26 22.75C26 23.853 25.103 24.75 24 24.75Z" fill="#5A6885"/>
<path d="M29.9205 16.9795L25.4205 9.97951C25.3285 9.83648 25.17 9.75 24.9999 9.75H19.5C19.2235 9.75 19 9.974 19 10.25V22.75C19 23.0265 19.2235 23.2499 19.5 23.2499H21.5V22.2499H20V10.75H24.727L29 17.397V22.25H26.4999V23.25H29.4999C29.7764 23.25 29.9999 23.0265 29.9999 22.75V17.25C30 17.1545 29.9725 17.06 29.9205 16.9795Z" fill="#5A6885"/>
<path d="M22 16.25V12.75H26V11.75H21.5C21.2235 11.75 21 11.974 21 12.2499V16.7499C21 17.0265 21.2235 17.2499 21.5 17.2499H29V16.2499H22V16.25Z" fill="#5A6885"/>
<path d="M19.5 6.25003H0.49998C0.224004 6.25003 0 6.47403 0 6.75001V22.75C0 23.0265 0.224004 23.25 0.49998 23.25H4.5V22.25H1.00002V7.24999H19V22.25H9.49998V23.25H19.5C19.7765 23.25 20 23.0265 20 22.75V6.75001C20 6.47403 19.7765 6.25003 19.5 6.25003Z" fill="#5A6885"/>
<path d="M3.5 20.25H0.5V21.25H3.5V20.25Z" fill="#5A6885"/>
<path d="M19 20.25H10.5V21.25H19V20.25Z" fill="#5A6885"/>
<path d="M29.5 20.25H27.5V21.25H29.5V20.25Z" fill="#5A6885"/>
<path d="M19.5 8.25H2V9.25002H19.5V8.25Z" fill="#5A6885"/>
<path d="M7.50002 22.25H6.5V23.25H7.50002V22.25Z" fill="#5A6885"/>
<path d="M24.5 22.25H23.5V23.25H24.5V22.25Z" fill="#5A6885"/>
<path d="M9.00002 4.24997H2V5.24999H9.00002V4.24997Z" fill="#5A6885"/>
<path d="M1.00002 4.24997H0V5.24999H1.00002V4.24997Z" fill="#5A6885"/>
</g>
<defs>
<clipPath id="clip0_63_120">
<rect width="30" height="30" fill="white"/>
</clipPath>
</defs>
</svg>
