<svg width="36" height="36" viewBox="0 0 36 36" fill="none" xmlns="http://www.w3.org/2000/svg">
<path d="M27.6288 30.2196H8.36766C7.5484 30.2196 6.91456 29.4972 7.00942 28.6748L9.3249 9.27432C9.40682 8.58238 9.98893 8.06017 10.6831 8.06017H25.3177C26.0076 8.06017 26.5897 8.58238 26.6759 9.27432L28.9914 28.6748C29.0819 29.4972 28.4481 30.2196 27.6288 30.2196Z" stroke="#5A6885" stroke-width="1.4" stroke-miterlimit="10" stroke-linecap="round" stroke-linejoin="round"/>
<path d="M13.5376 10.4103C13.5376 1.87634 22.3813 1.79801 22.3813 10.5669" stroke="#5A6885" stroke-width="1.4" stroke-miterlimit="10" stroke-linecap="round" stroke-linejoin="round"/>
<path d="M21.6871 14.4748L14.6631 26.1595" stroke="#5A6885" stroke-width="1.4" stroke-miterlimit="10" stroke-linecap="round" stroke-linejoin="round"/>
<path d="M14.663 19.7621C15.9608 19.7621 17.0129 18.7002 17.0129 17.3903C17.0129 16.0804 15.9608 15.0186 14.663 15.0186C13.3651 15.0186 12.313 16.0804 12.313 17.3903C12.313 18.7002 13.3651 19.7621 14.663 19.7621Z" stroke="#5A6885" stroke-width="1.4" stroke-miterlimit="10"/>
<path d="M21.6869 26.1594C22.9847 26.1594 24.0369 25.0975 24.0369 23.7876C24.0369 22.4777 22.9847 21.4159 21.6869 21.4159C20.389 21.4159 19.3369 22.4777 19.3369 23.7876C19.3369 25.0975 20.389 26.1594 21.6869 26.1594Z" stroke="#5A6885" stroke-width="1.4" stroke-miterlimit="10"/>
</svg>
