<svg width="17" height="17" viewBox="0 0 17 17" fill="none" xmlns="http://www.w3.org/2000/svg">
<path d="M8.43875 9.16008C8.45635 9.16008 8.47395 9.16008 8.49507 9.16008C8.50211 9.16008 8.50915 9.16008 8.51619 9.16008C8.52676 9.16008 8.54084 9.16008 8.5514 9.16008C9.58287 9.14247 10.4172 8.77987 11.0333 8.08635C12.3886 6.5585 12.1633 3.93933 12.1387 3.68938C12.0507 1.813 11.1635 0.915303 10.4313 0.496376C9.88563 0.183061 9.24844 0.0140816 8.53732 0H8.51267C8.50915 0 8.50211 0 8.49859 0H8.47747C8.08671 0 7.31926 0.0633672 6.5835 0.482294C5.84421 0.901222 4.94299 1.79892 4.85498 3.68938C4.83034 3.93933 4.60503 6.5585 5.96039 8.08635C6.57294 8.77987 7.40727 9.14247 8.43875 9.16008ZM5.79493 3.77739C5.79493 3.76683 5.79845 3.75626 5.79845 3.74922C5.91462 1.2251 7.7065 0.954028 8.47395 0.954028H8.48803C8.49507 0.954028 8.50563 0.954028 8.51619 0.954028C9.4667 0.97515 11.0826 1.36239 11.1917 3.74922C11.1917 3.75978 11.1917 3.77035 11.1952 3.77739C11.1987 3.80203 11.4452 6.1959 10.3257 7.4562C9.88211 7.9561 9.29068 8.20253 8.51267 8.20957C8.50563 8.20957 8.50211 8.20957 8.49507 8.20957C8.48803 8.20957 8.48451 8.20957 8.47747 8.20957C7.70298 8.20253 7.10804 7.9561 6.66799 7.4562C5.55202 6.20294 5.79141 3.79851 5.79493 3.77739Z" fill="#5A6885"/>
<path d="M15.7293 13.5042C15.7293 13.5007 15.7293 13.4972 15.7293 13.4937C15.7293 13.4655 15.7257 13.4373 15.7257 13.4057C15.7046 12.7086 15.6588 11.0787 14.131 10.5577C14.1204 10.5541 14.1063 10.5506 14.0958 10.5471C12.5081 10.1422 11.1879 9.22694 11.1739 9.21638C10.9591 9.065 10.6634 9.11781 10.512 9.33255C10.3606 9.5473 10.4135 9.84301 10.6282 9.99439C10.688 10.0366 12.0892 11.0118 13.8423 11.4624C14.6626 11.7546 14.7541 12.6312 14.7787 13.4338C14.7787 13.4655 14.7787 13.4937 14.7823 13.5218C14.7858 13.8387 14.7647 14.328 14.7083 14.6096C14.138 14.9335 11.9026 16.053 8.50187 16.053C5.11525 16.053 2.86572 14.93 2.29189 14.6061C2.23557 14.3245 2.21092 13.8352 2.21796 13.5183C2.21796 13.4902 2.22149 13.462 2.22149 13.4303C2.24613 12.6277 2.33766 11.7511 3.15791 11.4589C4.91107 11.0083 6.31219 10.0296 6.37203 9.99087C6.58678 9.83949 6.63958 9.54378 6.48821 9.32903C6.33683 9.11429 6.04112 9.06148 5.82637 9.21286C5.81229 9.22342 4.49918 10.1387 2.90444 10.5436C2.89036 10.5471 2.8798 10.5506 2.86924 10.5541C1.34139 11.0787 1.29562 12.7086 1.2745 13.4021C1.2745 13.4338 1.2745 13.462 1.27098 13.4902C1.27098 13.4937 1.27098 13.4972 1.27098 13.5007C1.26746 13.6838 1.26394 14.6237 1.45052 15.0955C1.48572 15.187 1.54909 15.2644 1.63358 15.3172C1.73919 15.3876 4.27036 17 8.5054 17C12.7404 17 15.2716 15.3841 15.3772 15.3172C15.4582 15.2644 15.5251 15.187 15.5603 15.0955C15.7363 14.6272 15.7328 13.6873 15.7293 13.5042Z" fill="#5A6885"/>
</svg>
